<svg preserveAspectRatio="none" overflow="visible" style="display: block;" width="14.8902" height="16" viewBox="0 0 14.8902 16" fill="none" xmlns="http://www.w3.org/2000/svg">
<path id="Union" d="M6.33984 0C8.3058 0.00027431 9.86627 1.74079 9.58496 3.70996L9.36426 5.25H11.6396C13.6074 5.25012 15.1239 6.98546 14.8604 8.93555L14.2617 13.3652C14.0578 14.874 12.7695 16 11.2471 16H2.25C1.00736 16 0 14.9926 0 13.75V8.78027C0 7.86491 0.517209 7.02753 1.33594 6.61816L1.63281 6.46973C2.60525 5.98338 3.35401 5.14292 3.72559 4.12109L4.8457 1.04199C5.07531 0.410864 5.68006 0 6.33984 0ZM6.33984 1.5C6.32158 1.5 6.30255 1.50621 6.28613 1.51758C6.27007 1.52871 6.26058 1.5419 6.25586 1.55469L5.13574 4.63379C4.63301 6.01631 3.61943 7.15354 2.30371 7.81152L2.00684 7.95996C1.69628 8.11524 1.5 8.43307 1.5 8.78027V13.75C1.5 14.1642 1.83579 14.5 2.25 14.5H11.2471C12.0187 14.5 12.672 13.9296 12.7754 13.165L13.374 8.73438C13.5159 7.68437 12.6992 6.75012 11.6396 6.75H8.5C8.28258 6.75 8.07605 6.65546 7.93359 6.49121C7.79115 6.32696 7.72707 6.10878 7.75781 5.89355L8.09961 3.49707C8.24832 2.45453 7.41607 1.50027 6.33984 1.5Z" fill="#9C9A92"/>
</svg>
