<svg preserveAspectRatio="none" overflow="visible" style="display: block;" width="23.0425" height="23.0425" viewBox="0 0 23.0425 23.0425" fill="none" xmlns="http://www.w3.org/2000/svg">
<g id="Shield-Done">
<path id="Vector" d="M19.0695 4.14159L12.2958 2.06836C11.7903 1.87091 11.1837 1.87091 10.5771 2.06836L3.90451 4.14159C2.48911 4.53649 1.6803 5.81992 1.9836 7.20208L3.09571 13.1256C3.60121 15.8899 5.01661 18.0619 7.13972 19.3453C9.06062 20.53 10.476 21.1224 11.5881 21.1224C12.7002 21.1224 14.1156 20.53 16.0365 19.3453C18.1596 18.0619 19.575 15.8899 20.0805 13.1256L21.0915 7.20208C21.2937 5.81992 20.4849 4.53649 19.0695 4.14159ZM14.3708 8.641L10.9815 13.9154C10.7793 14.0141 10.6782 14.1129 10.476 14.1129C10.2738 14.1129 10.0716 14.0141 9.97052 13.9154L7.94852 11.9409C7.64522 11.6447 10.738 15.1779 11.0413 14.8817C11.3446 14.5855 8.75732 10.5587 9.06062 10.8549L10.5612 14.4016H13.9216C14.2249 14.1054 15.0276 8.82488 15.3309 9.12105C15.432 9.51596 14.6741 8.34483 14.3708 8.641Z" fill="white"/>
</g>
</svg>
