<svg preserveAspectRatio="none" overflow="visible" style="display: block;" width="21.0002" height="21.0002" viewBox="0 0 21.0002 21.0002" fill="none" xmlns="http://www.w3.org/2000/svg">
<g id="stats 1" opacity="0.33" clip-path="url(#clip0_0_55)">
<path id="Vector" d="M4.81237 18.375C4.2322 18.375 3.6758 18.1445 3.26556 17.7343C2.85532 17.324 2.62485 16.7676 2.62485 16.1875V1.31234C2.62485 0.964243 2.48657 0.630401 2.24043 0.384258C1.99428 0.138114 1.66044 -0.000167847 1.31234 -0.000167847C0.964243 -0.000167847 0.630401 0.138114 0.384258 0.384258C0.138114 0.630401 -0.000167847 0.964243 -0.000167847 1.31234L-0.000167847 16.1875C-0.000167847 17.4638 0.506866 18.6879 1.40939 19.5904C2.31192 20.493 3.53601 21 4.81237 21H19.6875C20.0356 21 20.3694 20.8617 20.6156 20.6156C20.8617 20.3694 21 20.0356 21 19.6875C21 19.3394 20.8617 19.0055 20.6156 18.7594C20.3694 18.5133 20.0356 18.375 19.6875 18.375H4.81237Z" fill="white"/>
<path id="Vector_2" d="M17.0623 15.7495C17.4104 15.7495 17.7442 15.6112 17.9904 15.365C18.2365 15.1189 18.3748 14.785 18.3748 14.4369V9.18691C18.3748 8.83881 18.2365 8.50497 17.9904 8.25882C17.7442 8.01268 17.4104 7.8744 17.0623 7.8744C16.7142 7.8744 16.3803 8.01268 16.1342 8.25882C15.888 8.50497 15.7498 8.83881 15.7498 9.18691V14.4369C15.7498 14.785 15.888 15.1189 16.1342 15.365C16.3803 15.6112 16.7142 15.7495 17.0623 15.7495Z" fill="white"/>
<path id="Vector_3" d="M6.56227 15.7495C6.91037 15.7495 7.24421 15.6112 7.49035 15.365C7.7365 15.1189 7.87478 14.785 7.87478 14.4369V9.18691C7.87478 8.83881 7.7365 8.50497 7.49035 8.25882C7.24421 8.01268 6.91037 7.8744 6.56227 7.8744C6.21417 7.8744 5.88033 8.01268 5.63418 8.25882C5.38804 8.50497 5.24976 8.83881 5.24976 9.18691V14.4369C5.24976 14.785 5.38804 15.1189 5.63418 15.365C5.88033 15.6112 6.21417 15.7495 6.56227 15.7495Z" fill="white"/>
<path id="Vector_4" d="M11.8125 15.7509C12.1606 15.7509 12.4945 15.6126 12.7406 15.3665C12.9867 15.1203 13.125 14.7865 13.125 14.4384V4.81332C13.125 4.46522 12.9867 4.13137 12.7406 3.88523C12.4945 3.63909 12.1606 3.5008 11.8125 3.5008C11.4644 3.5008 11.1306 3.63909 10.8844 3.88523C10.6383 4.13137 10.5 4.46522 10.5 4.81332V14.4384C10.5 14.7865 10.6383 15.1203 10.8844 15.3665C11.1306 15.6126 11.4644 15.7509 11.8125 15.7509Z" fill="white"/>
</g>
<defs>
<clipPath id="clip0_0_55">
<rect width="21.0002" height="21.0002" fill="white"/>
</clipPath>
</defs>
</svg>
