<svg preserveAspectRatio="none" overflow="visible" style="display: block;" width="20.1561" height="20.0614" viewBox="0 0 20.1561 20.0614" fill="none" xmlns="http://www.w3.org/2000/svg">
<path id="Rectangle 74" d="M0.737418 8.93957C0.737418 7.73592 1.28859 6.59854 2.23332 5.85271L7.64105 1.58345C9.0699 0.455406 11.0862 0.455407 12.515 1.58345L17.9228 5.85271C18.8675 6.59855 19.4187 7.73592 19.4187 8.93957V15.3911C19.4187 17.5632 17.6578 19.324 15.4858 19.324H14.0109C13.4679 19.324 13.0277 18.8838 13.0277 18.3408V15.3911C13.0277 14.305 12.1473 13.4246 11.0613 13.4246H9.09482C8.00878 13.4246 7.12837 14.305 7.12837 15.3911V18.3408C7.12837 18.8838 6.68816 19.324 6.14515 19.324H4.67031C2.49824 19.324 0.737418 17.5632 0.737418 15.3911L0.737418 8.93957Z" fill="white" stroke="white" stroke-width="1.47484"/>
</svg>
